<svg id="logo" xmlns="http://www.w3.org/2000/svg" width="300" height="44" viewBox="0 0 300 44">
  <circle id="Ellipse_2" data-name="Ellipse 2" cx="22" cy="22" r="22" fill="#267fff"/>
  <path id="Icon_awesome-check" data-name="Icon awesome-check" d="M7.48,20.677.323,13.52a1.1,1.1,0,0,1,0-1.557L1.88,10.4a1.1,1.1,0,0,1,1.557,0l4.822,4.822L18.586,4.9a1.1,1.1,0,0,1,1.557,0L21.7,6.457a1.1,1.1,0,0,1,0,1.557L9.037,20.678a1.1,1.1,0,0,1-1.557,0Z" transform="translate(11 9.423)" fill="#fff"/>
  <path id="task_manager" data-name="task manager" d="M265.69,47.254v4.1h5.732V68.581h5.189V51.357H282.4v-4.1H265.69Zm33.426,21.329h5.491L296.792,47.4h-5.943l-7.813,21.178h5.43l1.327-3.892h7.994Zm-7.995-7.813,2.685-7.844,2.655,7.844Zm30.8,1.81a5.645,5.645,0,0,0-.935-3.379,6.409,6.409,0,0,0-2.232-1.976,23.907,23.907,0,0,0-3.349-1.373q-1.418-.513-2.172-.845a3.789,3.789,0,0,1-1.252-.86,1.8,1.8,0,0,1-.5-1.282,1.772,1.772,0,0,1,.558-1.418,2.158,2.158,0,0,1,1.463-.483,2.264,2.264,0,0,1,1.674.619,2.866,2.866,0,0,1,.769,1.674h5.581a6.447,6.447,0,0,0-2.368-4.646,8.756,8.756,0,0,0-5.657-1.689,9.74,9.74,0,0,0-3.907.739,6.141,6.141,0,0,0-2.67,2.126,6.285,6.285,0,0,0-.045,6.622,6.076,6.076,0,0,0,2.2,1.931,26.584,26.584,0,0,0,3.3,1.342q1.387.483,2.172.83a4.143,4.143,0,0,1,1.312.89,1.871,1.871,0,0,1,.528,1.358,1.9,1.9,0,0,1-.573,1.448,2.188,2.188,0,0,1-1.569.543,2.643,2.643,0,0,1-1.885-.694,2.9,2.9,0,0,1-.86-1.9h-5.491a6.339,6.339,0,0,0,2.534,4.887,9.557,9.557,0,0,0,5.913,1.75,8.93,8.93,0,0,0,4.058-.845,6.06,6.06,0,0,0,2.534-2.263,5.879,5.879,0,0,0,.86-3.107h0Zm21.51-15.325h-6.184l-7.3,9.381V47.254h-5.159V68.581h5.159V59.018l7.24,9.563h6.245l-8.6-10.891Zm25.914.15L363.7,62.156,357.942,47.4h-6.305V68.581H356.8V55.307l4.616,13.274h4.465l4.585-13.244V68.581h5.159V47.4Zm24.376,21.178h5.491L391.4,47.4h-5.943l-7.813,21.178h5.43L384.4,64.69h7.994Zm-7.995-7.812,2.685-7.844,2.655,7.844Zm34.421-13.515h-5.159V60.467l-8.628-13.213H401.2V68.581h5.159V55.488l8.628,13.093h5.159V47.254Zm18.1,21.329h5.49L435.925,47.4h-5.943l-7.813,21.178h5.43l1.327-3.892h7.994Zm-7.995-7.813,2.685-7.844,2.655,7.844Zm25.462-13.726a11.064,11.064,0,0,0-5.6,1.373,9.436,9.436,0,0,0-3.712,3.847,12.8,12.8,0,0,0,0,11.283,9.4,9.4,0,0,0,3.726,3.847,11.21,11.21,0,0,0,5.643,1.373,10.749,10.749,0,0,0,4.721-1,9.937,9.937,0,0,0,3.393-2.594A10.4,10.4,0,0,0,465.82,61.7V56.6H454.991v3.711h6.516a5.4,5.4,0,0,1-1.962,2.881,5.332,5.332,0,0,1-3.227,1.01,5.821,5.821,0,0,1-4.421-1.629,6.5,6.5,0,0,1-1.552-4.676,6.411,6.411,0,0,1,1.477-4.45,5.015,5.015,0,0,1,3.922-1.644,5.082,5.082,0,0,1,2.686.679,4.213,4.213,0,0,1,1.658,1.825h5.462A8.353,8.353,0,0,0,462.32,49a10.656,10.656,0,0,0-6.606-1.961h0Zm26.276,4.314v-4.1H468.716V68.581H481.99V64.448h-8.114V59.712h7.209v-3.89h-7.209V51.357Zm19.578,17.226L496.5,60.2a6.557,6.557,0,0,0,3.726-2.232,6.2,6.2,0,0,0,1.282-3.952,6.862,6.862,0,0,0-.874-3.485,6.044,6.044,0,0,0-2.626-2.4,9.509,9.509,0,0,0-4.284-.875h-8.809V68.581h5.16V60.528h1.175l4.617,8.055ZM490.075,51.6h3.2a3.092,3.092,0,0,1,2.247.724,2.66,2.66,0,0,1,.738,1.991,2.62,2.62,0,0,1-.724,2.006,3.218,3.218,0,0,1-2.261.679h-3.2V51.6Z" transform="translate(-201.568 -35.597)" fill="#30507d" fill-rule="evenodd"/>
</svg>
